<svg width="35" height="20" viewBox="0 0 35 20" fill="none" xmlns="http://www.w3.org/2000/svg">
<path d="M34.9978 13.9422C34.9978 11.0922 33.0608 8.70222 30.4522 8.05778C30.3417 3.58889 26.7455 0 22.3223 0C19.7313 0 17.4256 1.23222 15.9359 3.15C15.1003 2.05333 13.7933 1.34556 12.3233 1.34556C9.8 1.34556 7.75578 3.42444 7.75578 5.98889C7.75578 6.21222 7.77219 6.43222 7.80281 6.64667C7.41891 6.57667 7.02516 6.53778 6.62156 6.53778C2.96406 6.53778 0 9.55111 0 13.2689C0 16.9867 2.96406 20 6.62156 20H29.0522C32.3378 19.9933 35 17.2844 35 13.9433L34.9978 13.9422Z" class="cloudFullPath"/>
</svg>
