<svg width="35" height="20" viewBox="0 0 35 20" fill="none" xmlns="http://www.w3.org/2000/svg">
<path d="M33.9978 13.9422V14.0952C33.919 16.8283 31.7206 18.9941 29.0511 19C29.0508 19 29.0505 19 29.0502 19L6.62156 19C3.53178 19 1 16.4499 1 13.2689C1 10.0878 3.53178 7.53778 6.62156 7.53778C6.96056 7.53778 7.29418 7.57041 7.62343 7.63045L8.98901 7.87944L8.79277 6.50529C8.7686 6.33605 8.75578 6.1633 8.75578 5.98889C8.75578 3.96104 10.3678 2.34556 12.3233 2.34556C13.4631 2.34556 14.4828 2.89291 15.1405 3.75608L15.9283 4.78995L16.7257 3.76345C18.0368 2.07556 20.0573 1 22.3223 1C26.1862 1 29.355 4.13933 29.4525 8.08249L29.4714 8.84553L30.2124 9.02859C32.3749 9.56284 33.9978 11.5526 33.9978 13.9422Z" fill="white" stroke="#16009B" stroke-width="2"/>
</svg>
