<?xml version="1.0" encoding="UTF-8"?>
<svg width="200mm" height="227.14mm" version="1.1" viewBox="0 0 200 227.14211" xmlns="http://www.w3.org/2000/svg"><g transform="translate(-7.4135 -6.8606)"><g transform="matrix(5.5556 0 0 -5.5556 10.191 231.22)" fill="#2b198a" stroke="#fff"><path class="cloudFullPath" d="m34.998 13.942c0-2.85-1.937-5.24-4.5456-5.8844-0.1105-4.4689-3.7067-8.0578-8.1299-8.0578-2.591 0-4.8967 1.2322-6.3864 3.15-0.8356-1.0967-2.1426-1.8044-3.6126-1.8044-2.5233 0-4.5675 2.0789-4.5675 4.6433 0 0.22333 0.01641 0.44333 0.04703 0.65778-0.3839-0.07-0.77765-0.10889-1.1812-0.10889-3.6575 0-6.6216 3.0133-6.6216 6.7311 0 3.7178 2.9641 6.7311 6.6216 6.7311h22.431c3.2856-0.0067 5.9478-2.7156 5.9478-6.0567z"/></g><g transform="matrix(5.5556 0 0 5.5556 10.191 9.6384)" fill="#fff" stroke="#2b198a"><path class="cloudFullPath" d="m34.998 13.942c0-2.85-1.937-5.24-4.5456-5.8844-0.1105-4.4689-3.7067-8.0578-8.1299-8.0578-2.591 0-4.8967 1.2322-6.3864 3.15-0.8356-1.0967-2.1426-1.8044-3.6126-1.8044-2.5233 0-4.5675 2.0789-4.5675 4.6433 0 0.22333 0.01641 0.44333 0.04703 0.65778-0.3839-0.07-0.77765-0.10889-1.1812-0.10889-3.6575 0-6.6216 3.0133-6.6216 6.7311 0 3.7178 2.9641 6.7311 6.6216 6.7311h22.431c3.2856-0.0067 5.9478-2.7156 5.9478-6.0567z"/></g></g></svg>
